HIERARCHY
ROOT root
{
	OFFSET 0.000000 0.000000 0.000000
	CHANNELS 6 Xposition Yposition Zposition Zrotation Yrotation Xrotation
	JOINT lhip
	{
		OFFSET 0.058581 -0.082280 -0.017664
		CHANNELS 3 Zrotation Yrotation Xrotation
		JOINT lknee
		{
			OFFSET 0.043451 -0.386469 0.008037
			CHANNELS 3 Zrotation Yrotation Xrotation
			JOINT lankle
			{
				OFFSET -0.014790 -0.426874 -0.037428
				CHANNELS 3 Zrotation Yrotation Xrotation
				JOINT ltoe
				{
					OFFSET 0.041054 -0.060286 0.122042
					CHANNELS 3 Zrotation Yrotation Xrotation
					End Site
					{
						OFFSET 0.000000 0.000000 0.000000
					}
				}
			}
		}
	}
	JOINT rhip
	{
		OFFSET -0.060310 -0.090513 -0.013543
		CHANNELS 3 Zrotation Yrotation Xrotation
		JOINT rknee
		{
			OFFSET -0.043257 -0.383688 -0.004843
			CHANNELS 3 Zrotation Yrotation Xrotation
			JOINT rankle
			{
				OFFSET 0.019056 -0.420046 -0.034562
				CHANNELS 3 Zrotation Yrotation Xrotation
				JOINT rtoe
				{
					OFFSET -0.034840 -0.062106 0.130323
					CHANNELS 3 Zrotation Yrotation Xrotation
					End Site
					{
						OFFSET 0.000000 0.000000 0.000000
					}
				}
			}
		}
	}
	JOINT lowerback
	{
		OFFSET 0.004439 0.124404 -0.038385
		CHANNELS 3 Zrotation Yrotation Xrotation
		JOINT upperback
		{
			OFFSET 0.004488 0.137956 0.026820
			CHANNELS 3 Zrotation Yrotation Xrotation
			JOINT chest
			{
				OFFSET -0.002265 0.056032 0.002855
				CHANNELS 3 Zrotation Yrotation Xrotation
				JOINT lowerneck
				{
					OFFSET -0.013390 0.211636 -0.033468
					CHANNELS 3 Zrotation Yrotation Xrotation
					JOINT upperneck
					{
						OFFSET 0.010113 0.088937 0.050410
						CHANNELS 3 Zrotation Yrotation Xrotation
						End Site
						{
							OFFSET 0.000000 0.000000 0.000000
						}
					}
				}
				JOINT lclavicle
				{
					OFFSET 0.071702 0.114000 -0.018898
					CHANNELS 3 Zrotation Yrotation Xrotation
					JOINT lshoulder
					{
						OFFSET 0.122921 0.045205 -0.019046
						CHANNELS 3 Zrotation Yrotation Xrotation
						JOINT lelbow
						{
							OFFSET 0.255332 -0.015649 -0.022946
							CHANNELS 3 Zrotation Yrotation Xrotation
							JOINT lwrist
							{
								OFFSET 0.265709 0.012698 -0.007375
								CHANNELS 3 Zrotation Yrotation Xrotation
								End Site
								{
									OFFSET 0.000000 0.000000 0.000000
								}
							}
						}
					}
				}
				JOINT rclavicle
				{
					OFFSET -0.082954 0.112472 -0.023707
					CHANNELS 3 Zrotation Yrotation Xrotation
					JOINT rshoulder
					{
						OFFSET -0.113228 0.046853 -0.008472
						CHANNELS 3 Zrotation Yrotation Xrotation
						JOINT relbow
						{
							OFFSET -0.260127 -0.014369 -0.031269
							CHANNELS 3 Zrotation Yrotation Xrotation
							JOINT rwrist
							{
								OFFSET -0.269108 0.006794 -0.006027
								CHANNELS 3 Zrotation Yrotation Xrotation
								End Site
								{
									OFFSET 0.000000 0.000000 0.000000
								}
							}
						}
					}
				}
			}
		}
	}
}
MOTION
Frames: 13
Frame Time: 0.033333
2.090117 0.338312 0.984806 -81.874943 1.166365 84.483087 -5.505885 -0.245814 9.512221 -0.149417 -16.329911 5.185039 7.178680 14.369913 -19.896238 0.000000 -0.000000 0.000000 -3.093878 0.809884 -22.174521 0.514702 -7.407402 51.124834 2.819062 -11.688845 -21.867906 0.000000 -0.000000 0.000000 4.495803 -10.278126 16.086695 0.156849 -6.069138 0.155451 -2.040923 -0.977914 -4.105246 -0.094407 2.504199 -3.540899 -1.316501 1.968622 5.371242 -23.839079 9.205108 -5.458886 -55.527172 4.637505 7.194402 -2.506106 -37.967920 25.629522 -2.713212 -0.263692 3.331542 22.255820 1.287532 1.904777 63.036269 2.457539 15.461462 -8.685224 27.636200 5.299110 -17.013222 2.484714 13.393397 
2.083026 0.338651 0.985972 -82.179052 1.766137 84.090304 -4.562255 0.571914 10.527503 -0.233358 -16.804245 4.969398 6.581153 14.211152 -20.552730 0.000000 -0.000000 0.000000 -2.439221 1.652276 -22.752469 1.175466 -7.574709 46.615874 2.631323 -11.220865 -24.884161 0.000000 -0.000000 0.000000 4.627214 -10.679417 16.679413 0.258237 -5.709634 0.403501 -1.830008 -0.897177 -4.460924 -0.116302 2.851269 -3.140891 -1.250876 1.796618 5.068281 -23.905849 9.375109 -5.377026 -55.443689 4.852598 7.205003 -2.515827 -37.986811 25.734502 -2.891259 -0.119220 3.050850 22.339649 1.335428 2.286720 63.029815 2.311846 15.193737 -8.562281 27.531017 5.853548 -16.942966 2.240349 12.839396 
2.075331 0.338649 0.986552 -82.404225 2.353276 83.762106 -3.659674 1.228645 11.501740 -0.299472 -17.185036 4.807458 6.084188 14.003738 -21.291690 0.000000 -0.000000 0.000000 -1.662055 2.327472 -22.780994 1.577395 -7.397532 40.696177 2.682828 -10.916519 -26.637381 0.000000 -0.000000 0.000000 4.846518 -10.929606 17.190525 0.352015 -5.505455 0.764058 -1.624257 -0.865050 -4.849324 -0.197592 3.047756 -2.930899 -1.079207 1.792724 4.717201 -23.947905 9.502521 -5.268192 -55.381634 4.935629 7.260745 -2.657392 -38.039439 26.007585 -2.849191 -0.078733 2.994559 22.331296 1.365567 2.562162 63.000109 2.154613 15.088514 -8.418233 27.607786 6.285412 -16.915661 2.003694 12.409446 
2.066884 0.338222 0.986395 -82.485945 2.735666 83.617071 -2.968624 1.846340 12.274107 -0.369762 -17.464789 4.741304 5.746275 13.593437 -22.057094 0.000000 -0.000000 0.000000 -0.996664 2.511861 -22.661089 1.673492 -6.883418 34.467338 2.818797 -10.949406 -27.027943 0.000000 -0.000000 0.000000 5.025651 -11.041499 17.494445 0.391119 -5.520230 0.970160 -1.422607 -0.896508 -5.109531 -0.393706 3.004104 -2.860295 -0.840601 1.978266 4.356289 -24.015854 9.650955 -5.140542 -55.251525 4.938691 7.189338 -2.934233 -38.091368 26.401221 -2.855759 -0.253255 2.991752 22.320741 1.335630 2.814888 62.942100 2.065211 15.046602 -8.296760 27.725287 6.598526 -16.948541 1.887149 12.409836 
2.057660 0.338787 0.985455 -82.873991 2.879005 83.708117 -2.447767 2.472950 12.804471 -0.553646 -17.509256 4.713042 5.579137 13.313465 -22.788656 0.000000 -0.000000 0.000000 -0.388457 2.870910 -22.817570 1.636071 -5.907297 28.903595 3.041606 -10.978887 -26.552642 0.000000 -0.000000 0.000000 4.854311 -11.108552 17.647008 0.403561 -5.425889 0.858080 -1.185203 -0.814679 -5.215523 -0.542028 3.027919 -2.753663 -0.631545 2.301778 4.169325 -24.041908 9.905287 -5.063881 -55.003610 5.029278 7.018664 -3.240096 -38.033376 26.766262 -2.668120 -0.587268 3.316244 22.399322 1.308270 3.154080 62.981204 2.124409 15.057535 -8.317176 27.615890 6.621823 -16.967195 1.850793 12.623313 
2.047506 0.340657 0.983864 -83.672896 2.928386 83.999512 -2.014684 3.038246 13.142055 -0.797749 -17.321495 4.725974 5.452423 13.405650 -23.445500 0.000000 -0.000000 0.000000 0.278942 3.594296 -23.303318 1.466746 -4.618912 24.595559 3.392073 -10.634324 -25.729590 0.000000 -0.000000 0.000000 4.392533 -10.894695 17.655116 0.467419 -4.935510 0.682847 -0.862042 -0.708815 -5.182428 -0.568274 3.021505 -2.606406 -0.477739 2.243687 4.021676 -24.045865 10.252337 -5.079658 -54.837101 4.887937 7.020701 -3.345966 -37.867356 26.709041 -2.621962 -0.519820 3.470723 22.587180 0.965839 3.191731 62.898009 2.103298 15.235936 -8.310984 27.553445 6.605016 -17.026556 1.566343 12.540336 
2.036208 0.342231 0.982471 -84.418829 3.014349 84.189422 -1.711314 3.298796 13.660117 -0.979151 -17.292551 4.815902 5.272730 13.868631 -24.044514 0.000000 -0.000000 0.000000 0.865784 4.382920 -23.629911 1.284970 -3.615286 21.697596 3.987443 -10.274267 -24.734242 0.000000 -0.000000 0.000000 3.923494 -10.357765 17.727150 0.634760 -4.074428 0.359883 -0.473930 -0.825393 -4.827745 -0.397402 2.846396 -2.688354 -0.504869 1.631855 4.323756 -24.098944 10.236733 -4.817851 -55.036755 4.227810 7.406849 -2.773754 -37.388611 25.930485 -2.344428 -0.362499 3.707837 22.830523 0.384957 2.756128 62.466422 1.792285 15.576511 -8.217877 27.780630 6.494716 -17.210794 1.052395 11.845522 
2.023573 0.343022 0.981674 -84.818762 3.095802 84.253919 -1.530880 3.308089 14.382711 -1.039760 -17.461026 5.021260 5.034316 14.110255 -24.447330 0.000000 -0.000000 0.000000 1.197134 4.892110 -23.723247 1.191605 -3.377693 20.209166 4.509303 -10.192365 -23.683774 0.000000 -0.000000 0.000000 3.649894 -9.902290 17.850247 0.774323 -3.314754 -0.189678 -0.171675 -1.048280 -4.301146 -0.202139 2.594053 -2.754643 -0.626585 1.088294 4.869574 -24.256070 9.927908 -4.291912 -55.333904 3.509638 7.733738 -1.912091 -36.853604 24.943538 -2.158176 -0.529265 4.217607 23.054033 -0.011724 2.434925 61.936477 1.403996 15.733237 -8.155518 28.048085 6.451048 -17.284784 0.732276 11.216122 
2.009589 0.343384 0.981259 -84.792609 3.106147 84.093447 -1.284662 3.602303 15.286499 -1.054575 -17.890528 5.572608 4.708033 13.619304 -24.802235 0.000000 -0.000000 0.000000 1.383616 4.850871 -23.365666 1.120976 -3.517428 19.716747 4.624924 -10.029745 -22.824100 0.000000 -0.000000 0.000000 3.812994 -10.400112 18.140901 0.627028 -3.675379 0.332760 -0.275850 -0.881708 -4.980115 -0.503296 2.635834 -2.606566 -0.441856 1.800957 3.943576 -24.303451 10.131084 -4.664407 -55.100739 4.082534 7.284269 -2.247384 -37.151893 25.241498 -2.443382 -0.267695 3.855586 22.749086 0.357492 2.793408 62.424899 1.583066 15.678906 -8.255343 27.852402 6.501197 -17.442054 0.547519 11.450066 
1.994678 0.343689 0.980998 -84.366702 3.000568 84.078603 -1.129522 3.842458 15.930478 -1.053052 -18.432997 6.365694 4.195003 12.908389 -24.841008 0.000000 -0.000000 0.000000 1.406153 4.525040 -22.885542 1.094397 -3.473904 19.620624 4.644553 -9.769296 -22.084531 0.000000 -0.000000 0.000000 3.929165 -10.874930 18.283206 0.517913 -4.274347 0.781682 -0.393419 -0.814707 -5.573747 -0.690617 2.818356 -2.637829 -0.278423 2.487106 3.323372 -24.257679 10.319947 -5.076280 -54.954822 4.550304 6.869740 -2.718977 -37.268964 25.642512 -2.568272 -0.322003 3.825050 22.485020 0.606159 2.940584 62.849671 1.836370 15.566842 -8.243225 27.521156 6.380955 -17.584106 0.642106 12.051304 
1.978725 0.344875 0.981109 -84.009763 2.792598 84.296243 -1.077515 4.036445 16.282900 -1.125433 -18.806566 7.298400 3.761692 12.454211 -24.625250 0.000000 -0.000000 0.000000 1.444437 4.465080 -22.401340 1.069738 -3.075512 19.771463 4.580909 -9.461565 -21.296204 0.000000 -0.000000 0.000000 3.834706 -11.202840 18.206588 0.480554 -4.728581 0.835100 -0.458519 -0.749395 -5.863782 -0.783915 3.022203 -2.610429 -0.166059 3.008619 3.075990 -24.193878 10.404560 -5.317769 -54.747770 4.983901 6.586183 -3.231387 -37.306313 26.195509 -2.492735 -0.618123 4.142140 22.334743 0.770388 3.083285 63.193150 1.968430 15.410460 -8.296117 27.300417 6.221249 -17.791141 0.731931 12.421511 
1.961271 0.346854 0.981588 -83.856349 2.626471 84.638190 -0.998760 4.073617 16.550370 -1.245188 -18.937797 8.265315 3.222376 12.224934 -24.130451 0.000000 -0.000000 0.000000 1.678796 4.718331 -21.766582 1.009591 -2.693843 20.011084 4.527493 -9.039090 -20.684430 0.000000 -0.000000 0.000000 3.772560 -11.464405 17.847193 0.457136 -5.098657 1.109261 -0.558037 -0.581455 -6.294876 -0.873260 3.209392 -2.390731 -0.066663 3.461009 2.574899 -24.171689 10.514100 -5.610583 -54.427364 5.530305 6.343141 -3.763016 -37.436533 26.750288 -2.516973 -0.850061 4.625471 22.216456 0.951211 3.344389 63.520293 2.038717 15.173826 -8.381343 27.147291 6.149480 -17.872639 0.884644 12.708450 
1.942560 0.349694 0.982818 -83.985382 2.497964 85.124793 -0.898293 3.984282 16.608823 -1.464987 -18.962470 9.474999 2.530530 12.046277 -23.368106 0.000000 -0.000000 0.000000 2.148870 5.003627 -21.155146 0.880098 -2.320614 20.197921 4.571801 -8.434500 -20.141490 0.000000 -0.000000 0.000000 3.619597 -11.367005 17.406298 0.502773 -5.109079 1.022486 -0.527738 -0.430507 -6.487982 -0.914001 3.187464 -2.080996 0.041308 3.563773 2.188598 -24.248833 10.574508 -5.771581 -54.225561 5.812685 6.191148 -3.926986 -37.507545 26.602151 -2.792560 -0.768562 4.948286 22.209131 0.935416 3.454590 63.574595 1.817908 14.883552 -8.368136 26.967227 6.232751 -17.705646 1.120143 13.052348 
